<mxfile host="app.diagrams.net" modified="2023-06-12T11:06:48.606Z" agent="Mozilla/5.0 (Macintosh; Intel Mac OS X 10_15_7) AppleWebKit/537.36 (KHTML, like Gecko) Chrome/114.0.0.0 Safari/537.36" etag="ml6V3UZ_iaX9S1UMJDw7" version="21.3.7" type="google" pages="3">
  <diagram id="CxrEw5CeXJj6FuIE_ItT" name="use case diagram">
    <mxGraphModel grid="1" page="1" gridSize="10" guides="1" tooltips="1" connect="1" arrows="1" fold="1" pageScale="1" pageWidth="827" pageHeight="1169" math="0" shadow="0">
      <root>
        <mxCell id="0" />
        <mxCell id="1" parent="0" />
        <mxCell id="M716BsQujXX-OiF4qVIL-41" value="" style="rounded=0;whiteSpace=wrap;html=1;fillColor=#dae8fc;strokeColor=#6c8ebf;" vertex="1" parent="1">
          <mxGeometry x="97" width="730" height="520" as="geometry" />
        </mxCell>
        <mxCell id="RAH-sgsHDoky7zFeJkkA-1" style="edgeStyle=orthogonalEdgeStyle;rounded=0;orthogonalLoop=1;jettySize=auto;html=1;endArrow=none;endFill=0;" edge="1" parent="1" source="F2vMQ4She6ghm0n6OqQ2-2" target="kA4RTOul_W9LrJmNZBsp-12">
          <mxGeometry relative="1" as="geometry" />
        </mxCell>
        <mxCell id="UNK-QED7Keh-A_wFmKRt-12" style="edgeStyle=orthogonalEdgeStyle;orthogonalLoop=1;jettySize=auto;html=1;entryX=0;entryY=0.5;entryDx=0;entryDy=0;curved=1;endArrow=none;endFill=0;" edge="1" parent="1" source="F2vMQ4She6ghm0n6OqQ2-2" target="kA4RTOul_W9LrJmNZBsp-13">
          <mxGeometry relative="1" as="geometry" />
        </mxCell>
        <mxCell id="M716BsQujXX-OiF4qVIL-1" style="edgeStyle=orthogonalEdgeStyle;orthogonalLoop=1;jettySize=auto;html=1;entryX=0;entryY=0.5;entryDx=0;entryDy=0;curved=1;endArrow=none;endFill=0;" edge="1" parent="1" source="F2vMQ4She6ghm0n6OqQ2-2" target="kA4RTOul_W9LrJmNZBsp-11">
          <mxGeometry relative="1" as="geometry" />
        </mxCell>
        <mxCell id="F2vMQ4She6ghm0n6OqQ2-2" value="User" style="shape=umlActor;verticalLabelPosition=bottom;verticalAlign=top;html=1;outlineConnect=0;" vertex="1" parent="1">
          <mxGeometry x="17" y="150" width="40" height="80" as="geometry" />
        </mxCell>
        <mxCell id="kA4RTOul_W9LrJmNZBsp-17" style="edgeStyle=orthogonalEdgeStyle;rounded=0;orthogonalLoop=1;jettySize=auto;html=1;endArrow=none;endFill=0;" edge="1" parent="1" source="F2vMQ4She6ghm0n6OqQ2-4" target="kA4RTOul_W9LrJmNZBsp-14">
          <mxGeometry relative="1" as="geometry" />
        </mxCell>
        <mxCell id="F2vMQ4She6ghm0n6OqQ2-4" value="Admin" style="shape=umlActor;verticalLabelPosition=bottom;verticalAlign=top;html=1;outlineConnect=0;" vertex="1" parent="1">
          <mxGeometry x="17" y="430" width="40" height="80" as="geometry" />
        </mxCell>
        <mxCell id="F2vMQ4She6ghm0n6OqQ2-6" value="Login" style="ellipse;whiteSpace=wrap;html=1;" vertex="1" parent="1">
          <mxGeometry x="397" y="155" width="140" height="70" as="geometry" />
        </mxCell>
        <mxCell id="M716BsQujXX-OiF4qVIL-31" value="&amp;lt;&amp;lt;extend&amp;gt;&amp;gt;" style="edgeStyle=orthogonalEdgeStyle;rounded=0;orthogonalLoop=1;jettySize=auto;html=1;entryX=0.5;entryY=1;entryDx=0;entryDy=0;dashed=1;labelBackgroundColor=none;" edge="1" parent="1" source="kA4RTOul_W9LrJmNZBsp-3" target="F2vMQ4She6ghm0n6OqQ2-6">
          <mxGeometry x="0.0084" relative="1" as="geometry">
            <mxPoint as="offset" />
          </mxGeometry>
        </mxCell>
        <mxCell id="kA4RTOul_W9LrJmNZBsp-3" value="Register" style="ellipse;whiteSpace=wrap;html=1;" vertex="1" parent="1">
          <mxGeometry x="397" y="295" width="140" height="70" as="geometry" />
        </mxCell>
        <mxCell id="kA4RTOul_W9LrJmNZBsp-9" value="Browse Exercise Library" style="ellipse;whiteSpace=wrap;html=1;" vertex="1" parent="1">
          <mxGeometry x="397" y="15" width="140" height="70" as="geometry" />
        </mxCell>
        <mxCell id="M716BsQujXX-OiF4qVIL-32" style="edgeStyle=orthogonalEdgeStyle;orthogonalLoop=1;jettySize=auto;html=1;entryX=1;entryY=0.5;entryDx=0;entryDy=0;strokeColor=none;curved=1;dashed=1;" edge="1" parent="1" source="kA4RTOul_W9LrJmNZBsp-10" target="F2vMQ4She6ghm0n6OqQ2-6">
          <mxGeometry relative="1" as="geometry" />
        </mxCell>
        <mxCell id="M716BsQujXX-OiF4qVIL-33" style="edgeStyle=orthogonalEdgeStyle;orthogonalLoop=1;jettySize=auto;html=1;entryX=1;entryY=0.5;entryDx=0;entryDy=0;curved=1;dashed=1;" edge="1" parent="1" source="kA4RTOul_W9LrJmNZBsp-10" target="F2vMQ4She6ghm0n6OqQ2-6">
          <mxGeometry relative="1" as="geometry" />
        </mxCell>
        <mxCell id="M716BsQujXX-OiF4qVIL-34" value="&amp;lt;&amp;lt;extend&amp;gt;&amp;gt;" style="edgeLabel;html=1;align=center;verticalAlign=middle;resizable=0;points=[];labelBackgroundColor=none;" connectable="0" vertex="1" parent="M716BsQujXX-OiF4qVIL-33">
          <mxGeometry x="0.0521" relative="1" as="geometry">
            <mxPoint as="offset" />
          </mxGeometry>
        </mxCell>
        <mxCell id="M716BsQujXX-OiF4qVIL-35" style="edgeStyle=orthogonalEdgeStyle;rounded=0;orthogonalLoop=1;jettySize=auto;html=1;entryX=1;entryY=0.5;entryDx=0;entryDy=0;dashed=1;" edge="1" parent="1" source="kA4RTOul_W9LrJmNZBsp-10" target="kA4RTOul_W9LrJmNZBsp-9">
          <mxGeometry relative="1" as="geometry" />
        </mxCell>
        <mxCell id="M716BsQujXX-OiF4qVIL-36" value="&amp;lt;&amp;lt;extend&amp;gt;&amp;gt;" style="edgeLabel;html=1;align=center;verticalAlign=middle;resizable=0;points=[];labelBackgroundColor=none;" connectable="0" vertex="1" parent="M716BsQujXX-OiF4qVIL-35">
          <mxGeometry x="0.1546" y="-1" relative="1" as="geometry">
            <mxPoint as="offset" />
          </mxGeometry>
        </mxCell>
        <mxCell id="kA4RTOul_W9LrJmNZBsp-10" value="Manage Profile" style="ellipse;whiteSpace=wrap;html=1;" vertex="1" parent="1">
          <mxGeometry x="677" y="15" width="140" height="70" as="geometry" />
        </mxCell>
        <mxCell id="M716BsQujXX-OiF4qVIL-9" style="edgeStyle=orthogonalEdgeStyle;rounded=0;orthogonalLoop=1;jettySize=auto;html=1;entryX=0;entryY=0.5;entryDx=0;entryDy=0;dashed=1;" edge="1" parent="1" source="kA4RTOul_W9LrJmNZBsp-11" target="kA4RTOul_W9LrJmNZBsp-9">
          <mxGeometry relative="1" as="geometry" />
        </mxCell>
        <mxCell id="M716BsQujXX-OiF4qVIL-10" value="&amp;lt;&amp;lt;include&amp;gt;&amp;gt;" style="edgeLabel;html=1;align=center;verticalAlign=middle;resizable=0;points=[];labelBackgroundColor=none;" connectable="0" vertex="1" parent="M716BsQujXX-OiF4qVIL-9">
          <mxGeometry x="-0.037" y="5" relative="1" as="geometry">
            <mxPoint as="offset" />
          </mxGeometry>
        </mxCell>
        <mxCell id="M716BsQujXX-OiF4qVIL-25" style="edgeStyle=orthogonalEdgeStyle;orthogonalLoop=1;jettySize=auto;html=1;entryX=0;entryY=0.5;entryDx=0;entryDy=0;dashed=1;curved=1;" edge="1" parent="1" source="kA4RTOul_W9LrJmNZBsp-11" target="F2vMQ4She6ghm0n6OqQ2-6">
          <mxGeometry relative="1" as="geometry" />
        </mxCell>
        <mxCell id="M716BsQujXX-OiF4qVIL-30" value="&amp;lt;&amp;lt;include&amp;gt;&amp;gt;" style="edgeLabel;html=1;align=center;verticalAlign=middle;resizable=0;points=[];labelBackgroundColor=none;" connectable="0" vertex="1" parent="M716BsQujXX-OiF4qVIL-25">
          <mxGeometry x="-0.0067" relative="1" as="geometry">
            <mxPoint as="offset" />
          </mxGeometry>
        </mxCell>
        <mxCell id="M716BsQujXX-OiF4qVIL-37" value="&amp;lt;&amp;lt;include&amp;gt;&amp;gt;" style="edgeStyle=orthogonalEdgeStyle;rounded=0;orthogonalLoop=1;jettySize=auto;html=1;entryX=0.5;entryY=0;entryDx=0;entryDy=0;dashed=1;labelBackgroundColor=none;" edge="1" parent="1" source="kA4RTOul_W9LrJmNZBsp-11" target="kA4RTOul_W9LrJmNZBsp-12">
          <mxGeometry relative="1" as="geometry" />
        </mxCell>
        <mxCell id="kA4RTOul_W9LrJmNZBsp-11" value="Select Exercise" style="ellipse;whiteSpace=wrap;html=1;" vertex="1" parent="1">
          <mxGeometry x="117" y="15" width="140" height="70" as="geometry" />
        </mxCell>
        <mxCell id="M716BsQujXX-OiF4qVIL-26" value="&amp;lt;&amp;lt;include&amp;gt;&amp;gt;" style="edgeStyle=orthogonalEdgeStyle;orthogonalLoop=1;jettySize=auto;html=1;dashed=1;curved=1;labelBackgroundColor=none;" edge="1" parent="1" source="kA4RTOul_W9LrJmNZBsp-12">
          <mxGeometry relative="1" as="geometry">
            <mxPoint x="397" y="190" as="targetPoint" />
          </mxGeometry>
        </mxCell>
        <mxCell id="kA4RTOul_W9LrJmNZBsp-12" value="Create Workout Schedule" style="ellipse;whiteSpace=wrap;html=1;" vertex="1" parent="1">
          <mxGeometry x="117" y="155" width="140" height="70" as="geometry" />
        </mxCell>
        <mxCell id="RAH-sgsHDoky7zFeJkkA-10" style="edgeStyle=orthogonalEdgeStyle;rounded=0;orthogonalLoop=1;jettySize=auto;html=1;entryX=0.5;entryY=1;entryDx=0;entryDy=0;dashed=1;" edge="1" parent="1" source="kA4RTOul_W9LrJmNZBsp-13" target="kA4RTOul_W9LrJmNZBsp-12">
          <mxGeometry relative="1" as="geometry" />
        </mxCell>
        <mxCell id="RAH-sgsHDoky7zFeJkkA-12" value="&amp;lt;&amp;lt;extend&amp;gt;&amp;gt;" style="edgeLabel;html=1;align=center;verticalAlign=middle;resizable=0;points=[];labelBackgroundColor=none;" connectable="0" vertex="1" parent="RAH-sgsHDoky7zFeJkkA-10">
          <mxGeometry x="-0.0143" y="-2" relative="1" as="geometry">
            <mxPoint as="offset" />
          </mxGeometry>
        </mxCell>
        <mxCell id="M716BsQujXX-OiF4qVIL-28" style="edgeStyle=orthogonalEdgeStyle;orthogonalLoop=1;jettySize=auto;html=1;entryX=0;entryY=0.5;entryDx=0;entryDy=0;curved=1;dashed=1;" edge="1" parent="1" source="kA4RTOul_W9LrJmNZBsp-13" target="F2vMQ4She6ghm0n6OqQ2-6">
          <mxGeometry relative="1" as="geometry" />
        </mxCell>
        <mxCell id="M716BsQujXX-OiF4qVIL-29" value="&amp;lt;&amp;lt;include&amp;gt;&amp;gt;" style="edgeLabel;html=1;align=center;verticalAlign=middle;resizable=0;points=[];labelBackgroundColor=none;" connectable="0" vertex="1" parent="M716BsQujXX-OiF4qVIL-28">
          <mxGeometry x="-0.0773" relative="1" as="geometry">
            <mxPoint as="offset" />
          </mxGeometry>
        </mxCell>
        <mxCell id="kA4RTOul_W9LrJmNZBsp-13" value="Track Progress" style="ellipse;whiteSpace=wrap;html=1;" vertex="1" parent="1">
          <mxGeometry x="117" y="295" width="140" height="70" as="geometry" />
        </mxCell>
        <mxCell id="M716BsQujXX-OiF4qVIL-44" style="edgeStyle=orthogonalEdgeStyle;rounded=0;orthogonalLoop=1;jettySize=auto;html=1;entryX=0;entryY=0.5;entryDx=0;entryDy=0;dashed=1;" edge="1" parent="1" source="kA4RTOul_W9LrJmNZBsp-14" target="M716BsQujXX-OiF4qVIL-43">
          <mxGeometry relative="1" as="geometry" />
        </mxCell>
        <mxCell id="M716BsQujXX-OiF4qVIL-45" value="&amp;lt;&amp;lt;extend&amp;gt;&amp;gt;" style="edgeLabel;html=1;align=center;verticalAlign=middle;resizable=0;points=[];labelBackgroundColor=none;" connectable="0" vertex="1" parent="M716BsQujXX-OiF4qVIL-44">
          <mxGeometry x="-0.0538" y="3" relative="1" as="geometry">
            <mxPoint y="-7" as="offset" />
          </mxGeometry>
        </mxCell>
        <mxCell id="kA4RTOul_W9LrJmNZBsp-14" value="Manage Exercises" style="ellipse;whiteSpace=wrap;html=1;" vertex="1" parent="1">
          <mxGeometry x="117" y="435" width="140" height="70" as="geometry" />
        </mxCell>
        <mxCell id="M716BsQujXX-OiF4qVIL-43" value="Add / Remove Exercises" style="ellipse;whiteSpace=wrap;html=1;" vertex="1" parent="1">
          <mxGeometry x="397" y="435" width="140" height="70" as="geometry" />
        </mxCell>
      </root>
    </mxGraphModel>
  </diagram>
  <diagram id="Dw3sAAQ0t-u_fV093gDE" name="data flow diagram">
    <mxGraphModel grid="1" page="1" gridSize="10" guides="1" tooltips="1" connect="1" arrows="1" fold="1" pageScale="1" pageWidth="827" pageHeight="1169" math="0" shadow="0">
      <root>
        <mxCell id="0" />
        <mxCell id="1" parent="0" />
        <mxCell id="2fn9__JT8JXYO__qIyn4-1" value="USER" style="rounded=0;whiteSpace=wrap;html=1;" vertex="1" parent="1">
          <mxGeometry x="10" y="340" width="120" height="60" as="geometry" />
        </mxCell>
        <mxCell id="2fn9__JT8JXYO__qIyn4-2" value="Data store" style="html=1;dashed=0;whiteSpace=wrap;shape=partialRectangle;right=0;left=0;" vertex="1" parent="1">
          <mxGeometry x="10" y="430" width="120" height="40" as="geometry" />
        </mxCell>
        <mxCell id="2fn9__JT8JXYO__qIyn4-4" value="Process" style="ellipse;whiteSpace=wrap;html=1;aspect=fixed;" vertex="1" parent="1">
          <mxGeometry x="25" y="230" width="90" height="90" as="geometry" />
        </mxCell>
        <mxCell id="2fn9__JT8JXYO__qIyn4-18" style="edgeStyle=orthogonalEdgeStyle;orthogonalLoop=1;jettySize=auto;html=1;entryX=0.5;entryY=1;entryDx=0;entryDy=0;curved=1;" edge="1" parent="1" source="2fn9__JT8JXYO__qIyn4-6" target="2fn9__JT8JXYO__qIyn4-9">
          <mxGeometry relative="1" as="geometry" />
        </mxCell>
        <mxCell id="-XYsWRkFSbyvSpVq7kLC-2" value="Exercise information" style="edgeLabel;html=1;align=center;verticalAlign=middle;resizable=0;points=[];" connectable="0" vertex="1" parent="2fn9__JT8JXYO__qIyn4-18">
          <mxGeometry x="0.5692" y="-9" relative="1" as="geometry">
            <mxPoint y="-10" as="offset" />
          </mxGeometry>
        </mxCell>
        <mxCell id="2fn9__JT8JXYO__qIyn4-19" style="edgeStyle=orthogonalEdgeStyle;orthogonalLoop=1;jettySize=auto;html=1;entryX=1;entryY=0.5;entryDx=0;entryDy=0;curved=1;" edge="1" parent="1" source="2fn9__JT8JXYO__qIyn4-6" target="2fn9__JT8JXYO__qIyn4-10">
          <mxGeometry relative="1" as="geometry" />
        </mxCell>
        <mxCell id="-XYsWRkFSbyvSpVq7kLC-3" value="Exercises selected" style="edgeLabel;html=1;align=center;verticalAlign=middle;resizable=0;points=[];" connectable="0" vertex="1" parent="2fn9__JT8JXYO__qIyn4-19">
          <mxGeometry x="0.536" y="2" relative="1" as="geometry">
            <mxPoint as="offset" />
          </mxGeometry>
        </mxCell>
        <mxCell id="2fn9__JT8JXYO__qIyn4-6" value="Exercise Library" style="html=1;dashed=0;whiteSpace=wrap;shape=partialRectangle;right=0;left=0;" vertex="1" parent="1">
          <mxGeometry x="640" y="470" width="120" height="40" as="geometry" />
        </mxCell>
        <mxCell id="2fn9__JT8JXYO__qIyn4-23" style="edgeStyle=orthogonalEdgeStyle;orthogonalLoop=1;jettySize=auto;html=1;entryX=0.5;entryY=0;entryDx=0;entryDy=0;curved=1;" edge="1" parent="1" source="2fn9__JT8JXYO__qIyn4-8" target="2fn9__JT8JXYO__qIyn4-9">
          <mxGeometry relative="1" as="geometry" />
        </mxCell>
        <mxCell id="crRHMwXcOyqki_1KfOWe-3" value="Enter progress data" style="edgeLabel;html=1;align=center;verticalAlign=middle;resizable=0;points=[];" connectable="0" vertex="1" parent="2fn9__JT8JXYO__qIyn4-23">
          <mxGeometry x="-0.2387" y="-1" relative="1" as="geometry">
            <mxPoint as="offset" />
          </mxGeometry>
        </mxCell>
        <mxCell id="2fn9__JT8JXYO__qIyn4-26" style="edgeStyle=orthogonalEdgeStyle;orthogonalLoop=1;jettySize=auto;html=1;entryX=0;entryY=0.5;entryDx=0;entryDy=0;curved=1;" edge="1" parent="1" source="2fn9__JT8JXYO__qIyn4-8" target="2fn9__JT8JXYO__qIyn4-24">
          <mxGeometry relative="1" as="geometry" />
        </mxCell>
        <mxCell id="crRHMwXcOyqki_1KfOWe-4" value="Progress data&amp;nbsp;" style="edgeLabel;html=1;align=center;verticalAlign=middle;resizable=0;points=[];" connectable="0" vertex="1" parent="2fn9__JT8JXYO__qIyn4-26">
          <mxGeometry x="-0.0857" y="1" relative="1" as="geometry">
            <mxPoint as="offset" />
          </mxGeometry>
        </mxCell>
        <mxCell id="2fn9__JT8JXYO__qIyn4-8" value="Progress Data" style="html=1;dashed=0;whiteSpace=wrap;shape=partialRectangle;right=0;left=0;" vertex="1" parent="1">
          <mxGeometry x="435" y="65" width="120" height="40" as="geometry" />
        </mxCell>
        <mxCell id="2fn9__JT8JXYO__qIyn4-16" style="edgeStyle=orthogonalEdgeStyle;orthogonalLoop=1;jettySize=auto;html=1;entryX=0;entryY=0.5;entryDx=0;entryDy=0;curved=1;" edge="1" parent="1" source="2fn9__JT8JXYO__qIyn4-9" target="2fn9__JT8JXYO__qIyn4-11">
          <mxGeometry relative="1" as="geometry" />
        </mxCell>
        <mxCell id="p0gtTwboL1aX1SnAN9bp-1" value="List of exercises" style="edgeLabel;html=1;align=center;verticalAlign=middle;resizable=0;points=[];" connectable="0" vertex="1" parent="2fn9__JT8JXYO__qIyn4-16">
          <mxGeometry x="-0.296" relative="1" as="geometry">
            <mxPoint as="offset" />
          </mxGeometry>
        </mxCell>
        <mxCell id="2fn9__JT8JXYO__qIyn4-22" style="edgeStyle=orthogonalEdgeStyle;orthogonalLoop=1;jettySize=auto;html=1;entryX=1;entryY=0.5;entryDx=0;entryDy=0;curved=1;" edge="1" parent="1" source="2fn9__JT8JXYO__qIyn4-9" target="2fn9__JT8JXYO__qIyn4-12">
          <mxGeometry relative="1" as="geometry" />
        </mxCell>
        <mxCell id="-XYsWRkFSbyvSpVq7kLC-6" value="Progress information" style="edgeLabel;html=1;align=center;verticalAlign=middle;resizable=0;points=[];" connectable="0" vertex="1" parent="2fn9__JT8JXYO__qIyn4-22">
          <mxGeometry x="0.0167" y="-3" relative="1" as="geometry">
            <mxPoint as="offset" />
          </mxGeometry>
        </mxCell>
        <mxCell id="2fn9__JT8JXYO__qIyn4-9" value="USER" style="rounded=0;whiteSpace=wrap;html=1;" vertex="1" parent="1">
          <mxGeometry x="440" y="260" width="110" height="50" as="geometry" />
        </mxCell>
        <mxCell id="2fn9__JT8JXYO__qIyn4-20" style="edgeStyle=orthogonalEdgeStyle;orthogonalLoop=1;jettySize=auto;html=1;entryX=0.5;entryY=1;entryDx=0;entryDy=0;curved=1;" edge="1" parent="1" source="2fn9__JT8JXYO__qIyn4-10" target="2fn9__JT8JXYO__qIyn4-12">
          <mxGeometry relative="1" as="geometry" />
        </mxCell>
        <mxCell id="-XYsWRkFSbyvSpVq7kLC-4" value="Workout schedule" style="edgeLabel;html=1;align=center;verticalAlign=middle;resizable=0;points=[];" connectable="0" vertex="1" parent="2fn9__JT8JXYO__qIyn4-20">
          <mxGeometry x="0.0556" y="-6" relative="1" as="geometry">
            <mxPoint as="offset" />
          </mxGeometry>
        </mxCell>
        <mxCell id="2fn9__JT8JXYO__qIyn4-10" value="Create workout schedule" style="ellipse;whiteSpace=wrap;html=1;aspect=fixed;" vertex="1" parent="1">
          <mxGeometry x="240" y="380" width="90" height="90" as="geometry" />
        </mxCell>
        <mxCell id="2fn9__JT8JXYO__qIyn4-17" style="edgeStyle=orthogonalEdgeStyle;orthogonalLoop=1;jettySize=auto;html=1;entryX=0.5;entryY=0;entryDx=0;entryDy=0;curved=1;" edge="1" parent="1" source="2fn9__JT8JXYO__qIyn4-11" target="2fn9__JT8JXYO__qIyn4-6">
          <mxGeometry relative="1" as="geometry" />
        </mxCell>
        <mxCell id="-XYsWRkFSbyvSpVq7kLC-1" value="Exercise list" style="edgeLabel;html=1;align=center;verticalAlign=middle;resizable=0;points=[];" connectable="0" vertex="1" parent="2fn9__JT8JXYO__qIyn4-17">
          <mxGeometry x="0.2632" y="14" relative="1" as="geometry">
            <mxPoint as="offset" />
          </mxGeometry>
        </mxCell>
        <mxCell id="2fn9__JT8JXYO__qIyn4-11" value="Browse exercise library" style="ellipse;whiteSpace=wrap;html=1;aspect=fixed;" vertex="1" parent="1">
          <mxGeometry x="800" y="240" width="90" height="90" as="geometry" />
        </mxCell>
        <mxCell id="2fn9__JT8JXYO__qIyn4-21" style="edgeStyle=orthogonalEdgeStyle;orthogonalLoop=1;jettySize=auto;html=1;entryX=0;entryY=0.5;entryDx=0;entryDy=0;curved=1;" edge="1" parent="1" source="2fn9__JT8JXYO__qIyn4-12" target="2fn9__JT8JXYO__qIyn4-8">
          <mxGeometry relative="1" as="geometry" />
        </mxCell>
        <mxCell id="-XYsWRkFSbyvSpVq7kLC-5" value="User exercise progress" style="edgeLabel;html=1;align=center;verticalAlign=middle;resizable=0;points=[];" connectable="0" vertex="1" parent="2fn9__JT8JXYO__qIyn4-21">
          <mxGeometry x="-0.0681" y="3" relative="1" as="geometry">
            <mxPoint x="1" as="offset" />
          </mxGeometry>
        </mxCell>
        <mxCell id="2fn9__JT8JXYO__qIyn4-12" value="Track progress" style="ellipse;whiteSpace=wrap;html=1;aspect=fixed;" vertex="1" parent="1">
          <mxGeometry x="210" y="140" width="90" height="90" as="geometry" />
        </mxCell>
        <mxCell id="2fn9__JT8JXYO__qIyn4-27" style="edgeStyle=orthogonalEdgeStyle;orthogonalLoop=1;jettySize=auto;html=1;entryX=0.5;entryY=0;entryDx=0;entryDy=0;curved=1;" edge="1" parent="1" source="2fn9__JT8JXYO__qIyn4-24" target="2fn9__JT8JXYO__qIyn4-25">
          <mxGeometry relative="1" as="geometry" />
        </mxCell>
        <mxCell id="2fn9__JT8JXYO__qIyn4-28" style="edgeStyle=orthogonalEdgeStyle;orthogonalLoop=1;jettySize=auto;html=1;curved=1;" edge="1" parent="1" source="2fn9__JT8JXYO__qIyn4-24" target="2fn9__JT8JXYO__qIyn4-11">
          <mxGeometry relative="1" as="geometry" />
        </mxCell>
        <mxCell id="crRHMwXcOyqki_1KfOWe-6" value="View exercise list" style="edgeLabel;html=1;align=center;verticalAlign=middle;resizable=0;points=[];" connectable="0" vertex="1" parent="2fn9__JT8JXYO__qIyn4-28">
          <mxGeometry y="-2" relative="1" as="geometry">
            <mxPoint as="offset" />
          </mxGeometry>
        </mxCell>
        <mxCell id="2fn9__JT8JXYO__qIyn4-24" value="Manage profile" style="ellipse;whiteSpace=wrap;html=1;aspect=fixed;" vertex="1" parent="1">
          <mxGeometry x="730" y="40" width="90" height="90" as="geometry" />
        </mxCell>
        <mxCell id="2fn9__JT8JXYO__qIyn4-29" style="edgeStyle=orthogonalEdgeStyle;orthogonalLoop=1;jettySize=auto;html=1;curved=1;" edge="1" parent="1" source="2fn9__JT8JXYO__qIyn4-25" target="2fn9__JT8JXYO__qIyn4-9">
          <mxGeometry relative="1" as="geometry" />
        </mxCell>
        <mxCell id="crRHMwXcOyqki_1KfOWe-2" value="View account information" style="edgeLabel;html=1;align=center;verticalAlign=middle;resizable=0;points=[];" connectable="0" vertex="1" parent="2fn9__JT8JXYO__qIyn4-29">
          <mxGeometry x="-0.2414" y="7" relative="1" as="geometry">
            <mxPoint x="5" y="-7" as="offset" />
          </mxGeometry>
        </mxCell>
        <mxCell id="2fn9__JT8JXYO__qIyn4-25" value="Account information" style="html=1;dashed=0;whiteSpace=wrap;shape=partialRectangle;right=0;left=0;" vertex="1" parent="1">
          <mxGeometry x="630" y="180" width="120" height="40" as="geometry" />
        </mxCell>
      </root>
    </mxGraphModel>
  </diagram>
  <diagram id="F4jxEoPs4-hUo0Sh8O5B" name="context diagram">
    <mxGraphModel grid="1" page="1" gridSize="10" guides="1" tooltips="1" connect="1" arrows="1" fold="1" pageScale="1" pageWidth="827" pageHeight="1169" math="0" shadow="0">
      <root>
        <mxCell id="0" />
        <mxCell id="1" parent="0" />
        <mxCell id="A3DDSMCns82HFJ5t5W0e-3" value="Exercise history" style="edgeStyle=orthogonalEdgeStyle;orthogonalLoop=1;jettySize=auto;html=1;entryX=0;entryY=0.25;entryDx=0;entryDy=0;curved=1;endArrow=classic;endFill=1;exitX=0;exitY=0.5;exitDx=0;exitDy=0;" edge="1" parent="1" source="A3DDSMCns82HFJ5t5W0e-1" target="A3DDSMCns82HFJ5t5W0e-2">
          <mxGeometry x="-0.0579" y="22" relative="1" as="geometry">
            <mxPoint as="offset" />
          </mxGeometry>
        </mxCell>
        <mxCell id="A3DDSMCns82HFJ5t5W0e-4" style="edgeStyle=orthogonalEdgeStyle;orthogonalLoop=1;jettySize=auto;html=1;entryX=1;entryY=0.25;entryDx=0;entryDy=0;curved=1;endArrow=classic;endFill=1;exitX=1;exitY=0.5;exitDx=0;exitDy=0;" edge="1" parent="1" source="A3DDSMCns82HFJ5t5W0e-1" target="A3DDSMCns82HFJ5t5W0e-2">
          <mxGeometry relative="1" as="geometry" />
        </mxCell>
        <mxCell id="A3DDSMCns82HFJ5t5W0e-5" value="Exercise list" style="edgeLabel;html=1;align=center;verticalAlign=middle;resizable=0;points=[];" connectable="0" vertex="1" parent="A3DDSMCns82HFJ5t5W0e-4">
          <mxGeometry x="-0.1968" relative="1" as="geometry">
            <mxPoint as="offset" />
          </mxGeometry>
        </mxCell>
        <mxCell id="A3DDSMCns82HFJ5t5W0e-7" style="edgeStyle=orthogonalEdgeStyle;orthogonalLoop=1;jettySize=auto;html=1;entryX=0.5;entryY=0;entryDx=0;entryDy=0;curved=1;endArrow=classic;endFill=1;" edge="1" parent="1" source="A3DDSMCns82HFJ5t5W0e-1" target="A3DDSMCns82HFJ5t5W0e-2">
          <mxGeometry relative="1" as="geometry" />
        </mxCell>
        <mxCell id="Hl2qGGmNVgAFzoiOjVl--2" value="Progress information" style="edgeLabel;html=1;align=center;verticalAlign=middle;resizable=0;points=[];" connectable="0" vertex="1" parent="A3DDSMCns82HFJ5t5W0e-7">
          <mxGeometry x="0.1857" relative="1" as="geometry">
            <mxPoint as="offset" />
          </mxGeometry>
        </mxCell>
        <mxCell id="Hl2qGGmNVgAFzoiOjVl--3" style="edgeStyle=orthogonalEdgeStyle;orthogonalLoop=1;jettySize=auto;html=1;entryX=0;entryY=0.75;entryDx=0;entryDy=0;curved=1;exitX=0;exitY=0.5;exitDx=0;exitDy=0;" edge="1" parent="1" source="A3DDSMCns82HFJ5t5W0e-1" target="A3DDSMCns82HFJ5t5W0e-2">
          <mxGeometry relative="1" as="geometry">
            <mxPoint x="200" y="270" as="sourcePoint" />
            <Array as="points">
              <mxPoint x="290" y="248" />
              <mxPoint x="290" y="568" />
            </Array>
          </mxGeometry>
        </mxCell>
        <mxCell id="Hl2qGGmNVgAFzoiOjVl--4" value="Workout start/stop" style="edgeLabel;html=1;align=center;verticalAlign=middle;resizable=0;points=[];" connectable="0" vertex="1" parent="Hl2qGGmNVgAFzoiOjVl--3">
          <mxGeometry x="0.1511" y="-1" relative="1" as="geometry">
            <mxPoint x="-19" as="offset" />
          </mxGeometry>
        </mxCell>
        <mxCell id="65EA8jeZrCPXttqJG2nO-1" style="edgeStyle=orthogonalEdgeStyle;orthogonalLoop=1;jettySize=auto;html=1;entryX=1;entryY=0.75;entryDx=0;entryDy=0;curved=1;" edge="1" parent="1" source="A3DDSMCns82HFJ5t5W0e-1" target="A3DDSMCns82HFJ5t5W0e-2">
          <mxGeometry relative="1" as="geometry">
            <Array as="points">
              <mxPoint x="510" y="248" />
              <mxPoint x="510" y="568" />
            </Array>
          </mxGeometry>
        </mxCell>
        <mxCell id="65EA8jeZrCPXttqJG2nO-2" value="Workout information" style="edgeLabel;html=1;align=center;verticalAlign=middle;resizable=0;points=[];" connectable="0" vertex="1" parent="65EA8jeZrCPXttqJG2nO-1">
          <mxGeometry x="0.1683" relative="1" as="geometry">
            <mxPoint x="20" as="offset" />
          </mxGeometry>
        </mxCell>
        <mxCell id="A3DDSMCns82HFJ5t5W0e-1" value="Workout planner" style="ellipse;whiteSpace=wrap;html=1;aspect=fixed;" vertex="1" parent="1">
          <mxGeometry x="348" y="196" width="104" height="104" as="geometry" />
        </mxCell>
        <mxCell id="A3DDSMCns82HFJ5t5W0e-2" value="User" style="rounded=0;whiteSpace=wrap;html=1;" vertex="1" parent="1">
          <mxGeometry x="352" y="530" width="100" height="50" as="geometry" />
        </mxCell>
      </root>
    </mxGraphModel>
  </diagram>
</mxfile>
